# xmcd CD database file
#
# Track frame offsets:
#	150
#	20732
#	42232
#	63875
#
# Disc length: 1069 seconds
#
# Revision: 9
# Processed by: cddbd v1.5.2PL0 Copyright (c) Steve Scherf et al.
# Submitted via: CDex 1.51
#
DISCID=2d042b04
DTITLE=Various-Medleys - ZM-MED-4
DYEAR=1900
DGENRE=Blues
TTITLE0=Kenny Rogers/Charlie Rich - Country Medley
TTITLE1=Billy Joel - Billy Joel Medley
TTITLE2=Billie Jo Spears - Billie Jo Spears Medley
TTITLE3=Various Irish - Irish Medley
EXTD=
EXTT0=
EXTT1=
EXTT2=
EXTT3=
PLAYORDER=
